<svg width="64" height="64" viewBox="0 0 64 64" fill="none" xmlns="http://www.w3.org/2000/svg">
<g clip-path="url(#clip0_218_46)">
<path d="M64 32C64 49.6731 49.6731 64 32 64C14.3269 64 0 49.6731 0 32C0 14.3269 14.3269 0 32 0C49.6731 0 64 14.3269 64 32Z" fill="#FDFDFD"/>
<path d="M61.9264 36.7401H2.07361C4.36755 51.0678 16.8927 62.0206 32 62.0206C47.1073 62.0206 59.6325 51.0678 61.9264 36.7401Z" fill="#131313"/>
<path d="M62.0206 27.8919H1.97938C4.00102 13.2556 16.6713 1.97938 32 1.97938C47.3287 1.97938 59.999 13.2556 62.0206 27.8919Z" fill="#131313"/>
<path d="M1.63531 27.8908H62.933V36.7371H1.63531V27.8908Z" fill="#FDFDFD"/>
<path d="M13.3084 42.8866V41.2591L16.48 40.2474V12.5801L13.3084 11.5244V9.89691H38.2005V11.5244L34.9328 12.5361V40.2474L38.2005 41.2591V42.8866H28.4615V41.2591L31.569 40.2474V11.9203H19.8438V40.2914L23.0474 41.2591V42.8866H13.3084Z" fill="#FCDF57"/>
<path d="M51.3514 43.6959V50.8345C49.6213 53.4534 47.2108 54.7629 44.1199 54.7629C41.0291 54.7629 38.4533 53.2704 36.3927 50.2854C34.3516 47.2723 33.331 43.2594 33.331 38.2469C33.331 33.2062 34.371 29.2075 36.4511 26.2507C38.5311 23.2657 41.1068 21.7732 44.1783 21.7732C47.2691 21.7732 49.6602 22.9418 51.3514 25.2791V32.1221H49.8351L48.4063 25.4059C47.3372 24.026 45.9278 23.3361 44.1783 23.3361C41.9622 23.3361 40.164 24.6174 38.7838 27.18C37.4036 29.7144 36.7135 33.333 36.7135 38.0357C36.7135 42.7103 37.3744 46.3852 38.6963 49.0604C40.0376 51.7357 41.8261 53.0733 44.0616 53.0733C45.8695 53.0733 47.3566 52.2848 48.523 50.7078L49.9809 43.6959H51.3514Z" fill="#FEDD58"/>
<path d="M7.04066 33.881H6.37149L5.61423 32.7563V32.7188H6.32088L7.04066 33.881ZM7.04066 31.5792L6.32088 32.7413H5.61423V32.7038L6.37149 31.5792H7.04066ZM8.22904 33.881H7.55987L6.80261 32.7563V32.7188H7.50926L8.22904 33.881ZM8.22904 31.5792L7.50926 32.7413H6.80261V32.7038L7.55987 31.5792H8.22904Z" fill="#131313"/>
<path d="M12.613 30.4545V34.2933H11.867V31.0731H10.2531V34.2933H9.50523V30.4545H12.613Z" fill="#131313"/>
<path d="M13.9431 34.2933V30.4545H15.4201C15.7138 30.4545 15.9618 30.5101 16.1643 30.6214C16.3667 30.7313 16.5204 30.8831 16.6254 31.0768C16.7316 31.2705 16.7847 31.4917 16.7847 31.7404C16.7847 31.9916 16.731 32.214 16.6235 32.4077C16.5173 32.6001 16.3617 32.7507 16.1568 32.8594C15.9518 32.9681 15.7013 33.0225 15.4051 33.0225H14.4454V32.4114H15.2927C15.4564 32.4114 15.5913 32.3827 15.6975 32.3252C15.8038 32.2677 15.8825 32.189 15.9337 32.089C15.9862 31.9878 16.0124 31.8716 16.0124 31.7404C16.0124 31.6092 15.9862 31.4936 15.9337 31.3936C15.8825 31.2936 15.8031 31.2162 15.6957 31.1612C15.5895 31.105 15.4539 31.0768 15.2889 31.0768H14.6966V34.2933H13.9431Z" fill="#131313"/>
<path d="M21.3571 32.3739C21.3571 32.7901 21.279 33.1456 21.1228 33.4405C20.9666 33.7341 20.7541 33.9584 20.4855 34.1134C20.2168 34.2683 19.9138 34.3458 19.5764 34.3458C19.2377 34.3458 18.9341 34.2683 18.6654 34.1134C18.3967 33.9572 18.1843 33.7323 18.0281 33.4386C17.8731 33.1437 17.7957 32.7888 17.7957 32.3739C17.7957 31.9578 17.8731 31.6029 18.0281 31.3093C18.1843 31.0144 18.3967 30.7894 18.6654 30.6345C18.9341 30.4795 19.2377 30.402 19.5764 30.402C19.9138 30.402 20.2168 30.4795 20.4855 30.6345C20.7541 30.7894 20.9666 31.0144 21.1228 31.3093C21.279 31.6029 21.3571 31.9578 21.3571 32.3739ZM20.596 32.3739C20.596 32.0928 20.5529 31.856 20.4667 31.6635C20.3817 31.4698 20.2624 31.3236 20.1087 31.2249C19.9562 31.1249 19.7788 31.075 19.5764 31.075C19.3739 31.075 19.1959 31.1249 19.0422 31.2249C18.8897 31.3236 18.771 31.4698 18.686 31.6635C18.601 31.856 18.5586 32.0928 18.5586 32.3739C18.5586 32.6551 18.601 32.8925 18.686 33.0862C18.771 33.2787 18.8897 33.4249 19.0422 33.5248C19.1959 33.6235 19.3739 33.6729 19.5764 33.6729C19.7788 33.6729 19.9562 33.6235 20.1087 33.5248C20.2624 33.4249 20.3817 33.2787 20.4667 33.0862C20.5529 32.8925 20.596 32.6551 20.596 32.3739Z" fill="#131313"/>
<path d="M22.2855 35.2193V33.686H22.5442C22.6317 33.6198 22.7123 33.5261 22.786 33.4049C22.861 33.2836 22.9247 33.1175 22.9772 32.9063C23.0297 32.6938 23.0666 32.4177 23.0878 32.0778L23.1928 30.4545H25.6914V33.686H26.1131V35.2155H25.3896V34.2933H23.011V35.2193H22.2855ZM23.4196 33.686H24.966V31.0806H23.8732L23.8132 32.0778C23.797 32.3352 23.7701 32.5645 23.7326 32.7657C23.6964 32.9669 23.6514 33.1437 23.5976 33.2961C23.5452 33.4473 23.4858 33.5773 23.4196 33.686Z" fill="#131313"/>
<path d="M27.7501 34.2933H26.9423L28.2806 30.4545H29.2347L30.573 34.2933H29.7651L28.7717 31.2868H28.7417L27.7501 34.2933ZM28.2459 32.7901L28.7529 32.7863L29.2684 32.7901L29.4641 33.3824L28.0506 33.3824L28.2459 32.7901Z" fill="#131313"/>
<path d="M33.8965 34.2933L32.6482 32.6364H32.3389V34.2933H31.5854V30.4545H32.3389V32.0103H32.5076L33.8272 30.4545H34.7625L33.2555 32.2202L34.83 34.2933H33.8965Z" fill="#131313"/>
<path d="M35.6413 31.0806V30.4545H38.7491V31.0806H37.5682V34.2933H36.8222V31.0806H35.6413Z" fill="#131313"/>
<path d="M42.9981 31.7741H42.2371C42.2196 31.6642 42.1859 31.5661 42.1359 31.4798C42.0859 31.3936 42.0228 31.3205 41.9466 31.2605C41.8703 31.1993 41.7829 31.1531 41.6841 31.1218C41.5867 31.0906 41.4811 31.075 41.3674 31.075C41.1637 31.075 40.9844 31.1256 40.8294 31.2268C40.6757 31.3268 40.5558 31.4736 40.4695 31.6673C40.3846 31.861 40.3421 32.0965 40.3421 32.3739C40.3421 32.6576 40.3852 32.8963 40.4714 33.09C40.5576 33.2824 40.6776 33.428 40.8313 33.5267C40.9862 33.6242 41.1637 33.6729 41.3636 33.6729C41.4761 33.6729 41.5804 33.6585 41.6767 33.6298C41.7729 33.5998 41.8591 33.5561 41.9353 33.4986C42.0128 33.4411 42.0772 33.3705 42.1284 33.2868C42.1809 33.2031 42.2171 33.1075 42.2371 33L42.9981 33.0037C42.9744 33.1824 42.9194 33.353 42.8332 33.5155C42.7482 33.6767 42.6351 33.8197 42.4939 33.9447C42.3539 34.0697 42.1877 34.1677 41.9953 34.239C41.8041 34.3102 41.5898 34.3458 41.3524 34.3458C41.0125 34.3458 40.7088 34.2683 40.4414 34.1134C40.174 33.9572 39.9634 33.7323 39.8097 33.4386C39.656 33.1437 39.5792 32.7888 39.5792 32.3739C39.5792 31.9578 39.6567 31.6029 39.8116 31.3093C39.9678 31.0144 40.1796 30.7894 40.447 30.6345C40.7145 30.4795 41.0162 30.402 41.3524 30.402C41.5711 30.402 41.7735 30.4327 41.9597 30.4939C42.1471 30.5551 42.3133 30.6445 42.4583 30.7619C42.6045 30.8794 42.7238 31.0231 42.8163 31.1931C42.91 31.363 42.9706 31.5567 42.9981 31.7741Z" fill="#131313"/>
<path d="M44.1379 34.2933V30.4545H46.6797V31.0806H44.8915V32.059H46.5484V32.6851H44.8915V33.6673H46.6909V34.2933H44.1379Z" fill="#131313"/>
<path d="M47.8874 34.2933V30.4545H49.3645C49.6581 30.4545 49.9062 30.5101 50.1086 30.6214C50.311 30.7313 50.4647 30.8831 50.5697 31.0768C50.6759 31.2705 50.729 31.4917 50.729 31.7404C50.729 31.9916 50.6753 32.214 50.5678 32.4077C50.4616 32.6001 50.3061 32.7507 50.1011 32.8594C49.8962 32.9681 49.6456 33.0225 49.3495 33.0225L48.6409 33.0225V32.4114L49.237 32.4114C49.4007 32.4114 49.5357 32.3827 49.6419 32.3252C49.7481 32.2677 49.8268 32.189 49.8781 32.089C49.9305 31.9878 49.9568 31.8716 49.9568 31.7404C49.9568 31.6092 49.9305 31.4936 49.8781 31.3936C49.8268 31.2936 49.7475 31.2162 49.64 31.1612C49.5338 31.105 49.3982 31.0768 49.2333 31.0768H48.6409V34.2933H47.8874Z" fill="#131313"/>
<path d="M51.665 31.0806V30.4545H54.7728V31.0806H53.5919V34.2933H52.8459V31.0806H51.665Z" fill="#131313"/>
<path d="M55.5125 33.881L56.2322 32.7188H56.937V32.7563L56.1797 33.881H55.5125ZM55.5125 31.5792H56.1797L56.937 32.7038V32.7413H56.2322L55.5125 31.5792ZM56.7177 33.881L57.4375 32.7188H58.1423V32.7563L57.385 33.881H56.7177ZM56.7177 31.5792H57.385L58.1423 32.7038V32.7413H57.4375L56.7177 31.5792Z" fill="#131313"/>
</g>
<defs>
<clipPath id="clip0_218_46">
<rect width="64" height="64" fill="white"/>
</clipPath>
</defs>
</svg>
