<svg width="100" height="100" viewBox="0 0 100 100" fill="none" xmlns="http://www.w3.org/2000/svg">
<circle cx="50.1504" cy="49.8027" r="49" fill="#FDFDFD" stroke="#131313"/>
<path d="M95.5076 56.9869H4.79321C8.26995 78.7023 27.2534 95.3027 50.1504 95.3027C73.0474 95.3027 92.0308 78.7023 95.5076 56.9869Z" fill="#131313"/>
<path d="M95.6504 43.5764H4.65039C7.71444 21.3932 26.9179 4.30273 50.1504 4.30273C73.3829 4.30273 92.5863 21.3932 95.6504 43.5764Z" fill="#131313"/>
<rect x="4.12891" y="43.5747" width="92.9043" height="13.4077" fill="#FDFDFD"/>
<path d="M21.8203 66.3027V63.8361L26.6272 62.3027V20.3694L21.8203 18.7694V16.3027H59.5475V18.7694L54.5949 20.3027V62.3027L59.5475 63.8361V66.3027H44.7868V63.8361L49.4966 62.3027V19.3694H31.7255V62.3694L36.581 63.8361V66.3027H21.8203Z" fill="#FCDF57"/>
<path d="M79.4801 67.5294V78.3488C76.8579 82.3181 73.2045 84.3027 68.5199 84.3027C63.8353 84.3027 59.9315 82.0407 56.8084 77.5166C53.7148 72.9498 52.168 66.8678 52.168 59.2707C52.168 51.6309 53.7442 45.5703 56.8968 41.0889C60.0493 36.5648 63.9531 34.3027 68.6083 34.3027C73.2929 34.3027 76.9168 36.074 79.4801 39.6164V49.9878H77.182L75.0165 39.8085C73.396 37.7172 71.26 36.6715 68.6083 36.6715C65.2495 36.6715 62.5242 38.6134 60.4323 42.4974C58.3405 46.3386 57.2945 51.823 57.2945 58.9506C57.2945 66.0356 58.2963 71.6053 60.2997 75.66C62.3327 79.7146 65.0433 81.7419 68.4315 81.7419C71.1716 81.7419 73.4255 80.5469 75.1933 78.1568L77.403 67.5294H79.4801Z" fill="#FEDD58"/>
<path d="M12.3208 52.6536H11.3066L10.1589 50.949V50.8922H11.2299L12.3208 52.6536ZM12.3208 49.1649L11.2299 50.9263H10.1589V50.8695L11.3066 49.1649H12.3208ZM14.122 52.6536H13.1078L11.96 50.949V50.8922H13.0311L14.122 52.6536ZM14.122 49.1649L13.0311 50.9263H11.96V50.8695L13.1078 49.1649H14.122ZM20.7664 47.4604V53.2786H19.6358V48.3979H17.1897V53.2786H16.0562V47.4604H20.7664ZM22.7824 53.2786V47.4604H25.021C25.4661 47.4604 25.842 47.5447 26.1488 47.7132C26.4556 47.8799 26.6886 48.11 26.8477 48.4036C27.0087 48.6971 27.0892 49.0324 27.0892 49.4092C27.0892 49.7899 27.0077 50.127 26.8449 50.4206C26.6839 50.7123 26.4481 50.9405 26.1375 51.1053C25.8269 51.27 25.4471 51.3524 24.9983 51.3524H23.5437V50.4263H24.8278C25.0759 50.4263 25.2805 50.3827 25.4414 50.2956C25.6024 50.2085 25.7217 50.0892 25.7994 49.9377C25.8789 49.7842 25.9187 49.6081 25.9187 49.4092C25.9187 49.2104 25.8789 49.0352 25.7994 48.8837C25.7217 48.7322 25.6015 48.6147 25.4386 48.5314C25.2776 48.4462 25.0721 48.4036 24.8221 48.4036H23.9244V53.2786H22.7824ZM34.0191 50.3695C34.0191 51.0002 33.9008 51.539 33.664 51.986C33.4273 52.431 33.1053 52.771 32.6981 53.0058C32.2909 53.2407 31.8316 53.3581 31.3203 53.3581C30.807 53.3581 30.3468 53.2407 29.9396 53.0058C29.5324 52.7691 29.2104 52.4282 28.9737 51.9831C28.7388 51.5361 28.6214 50.9983 28.6214 50.3695C28.6214 49.7388 28.7388 49.2009 28.9737 48.7558C29.2104 48.3089 29.5324 47.968 29.9396 47.7331C30.3468 47.4983 30.807 47.3808 31.3203 47.3808C31.8316 47.3808 32.2909 47.4983 32.6981 47.7331C33.1053 47.968 33.4273 48.3089 33.664 48.7558C33.9008 49.2009 34.0191 49.7388 34.0191 50.3695ZM32.8657 50.3695C32.8657 49.9433 32.8004 49.5844 32.6697 49.2928C32.5409 48.9992 32.36 48.7776 32.1271 48.628C31.896 48.4765 31.6271 48.4007 31.3203 48.4007C31.0135 48.4007 30.7436 48.4765 30.5106 48.628C30.2796 48.7776 30.0996 48.9992 29.9708 49.2928C29.8421 49.5844 29.7777 49.9433 29.7777 50.3695C29.7777 50.7956 29.8421 51.1555 29.9708 51.449C30.0996 51.7407 30.2796 51.9623 30.5106 52.1138C30.7436 52.2634 31.0135 52.3382 31.3203 52.3382C31.6271 52.3382 31.896 52.2634 32.1271 52.1138C32.36 51.9623 32.5409 51.7407 32.6697 51.449C32.8004 51.1555 32.8657 50.7956 32.8657 50.3695ZM35.4264 54.682V52.3581H35.8184C35.951 52.2577 36.0732 52.1157 36.1849 51.932C36.2985 51.7483 36.3951 51.4964 36.4747 51.1763C36.5542 50.8543 36.6101 50.4358 36.6423 49.9206L36.8014 47.4604H40.5883V52.3581H41.2275V54.6763H40.1309V53.2786H36.5258V54.682H35.4264ZM37.1451 52.3581H39.4889V48.4092H37.8326L37.7417 49.9206C37.7171 50.3108 37.6764 50.6583 37.6196 50.9632C37.5646 51.2681 37.4965 51.5361 37.415 51.7672C37.3355 51.9964 37.2455 52.1933 37.1451 52.3581ZM43.7086 53.2786H42.4842L44.5126 47.4604H45.9586L47.987 53.2786H46.7626L45.2569 48.7217H45.2115L43.7086 53.2786ZM43.6831 50.9945H46.774V51.8979H43.6831V50.9945ZM53.0243 53.2786L51.1322 50.7672H50.6635V53.2786H49.5214V47.4604H50.6635V49.8183H50.9191L52.9191 47.4604H54.3368L52.0527 50.1365L54.439 53.2786H53.0243ZM55.6687 48.4092V47.4604H60.3789V48.4092H58.5892V53.2786H57.4585V48.4092H55.6687ZM66.8189 49.4604H65.6654C65.6389 49.2937 65.5878 49.145 65.512 49.0144C65.4363 48.8837 65.3406 48.7729 65.2251 48.682C65.1096 48.5892 64.977 48.5191 64.8274 48.4717C64.6797 48.4244 64.5196 48.4007 64.3473 48.4007C64.0386 48.4007 63.7668 48.4774 63.5319 48.6308C63.299 48.7824 63.1172 49.0049 62.9865 49.2985C62.8577 49.592 62.7933 49.949 62.7933 50.3695C62.7933 50.7994 62.8586 51.1611 62.9893 51.4547C63.12 51.7464 63.3018 51.967 63.5348 52.1166C63.7696 52.2644 64.0386 52.3382 64.3416 52.3382C64.512 52.3382 64.6702 52.3164 64.816 52.2729C64.9619 52.2274 65.0925 52.1611 65.2081 52.074C65.3255 51.9869 65.423 51.8799 65.5007 51.753C65.5802 51.6261 65.6351 51.4812 65.6654 51.3183L66.8189 51.324C66.7829 51.5949 66.6995 51.8534 66.5689 52.0996C66.4401 52.3439 66.2687 52.5608 66.0547 52.7502C65.8425 52.9395 65.5906 53.0882 65.299 53.1962C65.0092 53.3041 64.6844 53.3581 64.3245 53.3581C63.8094 53.3581 63.3492 53.2407 62.9439 53.0058C62.5386 52.7691 62.2194 52.4282 61.9865 51.9831C61.7535 51.5361 61.637 50.9983 61.637 50.3695C61.637 49.7388 61.7545 49.2009 61.9893 48.7558C62.2261 48.3089 62.5471 47.968 62.9524 47.7331C63.3577 47.4983 63.8151 47.3808 64.3245 47.3808C64.656 47.3808 64.9628 47.4272 65.245 47.52C65.5291 47.6128 65.781 47.7483 66.0007 47.9263C66.2223 48.1043 66.4031 48.3221 66.5433 48.5797C66.6853 48.8373 66.7772 49.1308 66.8189 49.4604ZM68.5464 53.2786V47.4604H72.3987V48.4092H69.6885V49.8922H72.1998V50.8411H69.6885V52.3297H72.4157V53.2786H68.5464ZM74.2292 53.2786V47.4604H76.4679C76.9129 47.4604 77.2889 47.5447 77.5957 47.7132C77.9025 47.8799 78.1355 48.11 78.2946 48.4036C78.4556 48.6971 78.536 49.0324 78.536 49.4092C78.536 49.7899 78.4546 50.127 78.2917 50.4206C78.1307 50.7123 77.8949 50.9405 77.5843 51.1053C77.2737 51.27 76.894 51.3524 76.4451 51.3524H74.9906V50.4263H76.2747C76.5228 50.4263 76.7273 50.3827 76.8883 50.2956C77.0493 50.2085 77.1686 50.0892 77.2463 49.9377C77.3258 49.7842 77.3656 49.6081 77.3656 49.4092C77.3656 49.2104 77.3258 49.0352 77.2463 48.8837C77.1686 48.7322 77.0484 48.6147 76.8855 48.5314C76.7245 48.4462 76.519 48.4036 76.269 48.4036H75.3713V53.2786H74.2292ZM79.9547 48.4092V47.4604H84.6649V48.4092H82.8751V53.2786H81.7444V48.4092H79.9547ZM85.7859 52.6536L86.8768 50.8922H87.945V50.949L86.7973 52.6536H85.7859ZM85.7859 49.1649H86.7973L87.945 50.8695V50.9263H86.8768L85.7859 49.1649ZM87.6126 52.6536L88.7035 50.8922H89.7717V50.949L88.624 52.6536H87.6126ZM87.6126 49.1649H88.624L89.7717 50.8695V50.9263H88.7035L87.6126 49.1649Z" fill="#131313"/>
</svg>
